<svg width="21" height="20" viewBox="0 0 21 20" fill="none" xmlns="http://www.w3.org/2000/svg">
<path d="M10.5 14L14.5 10L13.1 8.6L11.5 10.2V6H9.5V10.2L7.9 8.6L6.5 10L10.5 14ZM10.5 20C9.11667 20 7.81667 19.7375 6.6 19.2125C5.38333 18.6875 4.325 17.975 3.425 17.075C2.525 16.175 1.8125 15.1167 1.2875 13.9C0.7625 12.6833 0.5 11.3833 0.5 10C0.5 8.61667 0.7625 7.31667 1.2875 6.1C1.8125 4.88333 2.525 3.825 3.425 2.925C4.325 2.025 5.38333 1.3125 6.6 0.7875C7.81667 0.2625 9.11667 0 10.5 0C11.8833 0 13.1833 0.2625 14.4 0.7875C15.6167 1.3125 16.675 2.025 17.575 2.925C18.475 3.825 19.1875 4.88333 19.7125 6.1C20.2375 7.31667 20.5 8.61667 20.5 10C20.5 11.3833 20.2375 12.6833 19.7125 13.9C19.1875 15.1167 18.475 16.175 17.575 17.075C16.675 17.975 15.6167 18.6875 14.4 19.2125C13.1833 19.7375 11.8833 20 10.5 20Z" fill="white"/>
</svg>
